<svg id="Layer_1" data-name="Layer 1" xmlns="http://www.w3.org/2000/svg" viewBox="0 0 64.2 68.06"><defs><style>.cls-1{fill:#fed250;fill-rule:evenodd;}.cls-2{fill:none;}</style></defs><title>HOME</title><g id="Layer_1-2" data-name="Layer 1-2"><g id="Layer_1-2-2" data-name="Layer 1-2-2"><path class="cls-1" d="M2,17.45c0,9,3.7,18.7,7.91,26.4,4,7.4,10.9,17.7,18.6,21.2s16.2-7,20.3-12.9A72.19,72.19,0,0,0,61,25.25c2.5-11-.3-17.21-10.7-20.31A61.54,61.54,0,0,0,19,3.44C11.92,5,1.61,7.74,2,17.45Z"/><path d="M31.92,67.85a9.78,9.78,0,0,1-4.1-.9c-8.7-4-16-15.6-19.61-22.1C4.51,38,0,27.65,0,17.45c-.5-11.91,12.51-14.71,18.81-16A64.72,64.72,0,0,1,51.22,3c11.1,3.3,14.9,10.31,12.1,22.81a73.57,73.57,0,0,1-12.5,27.6Q40.32,67.85,31.92,67.85Zm0-63.61a57.14,57.14,0,0,0-12.3,1.3C10,7.54,3.81,10.35,4.11,17.35v.1c0,9.3,4.2,19,7.71,25.4,2.6,4.9,9.7,16.7,17.7,20.4,4.4,2.1,10.7-2.3,17.8-12.2a70.08,70.08,0,0,0,11.9-26.2c2.3-10.3-.2-15.2-9.3-17.91a61.36,61.36,0,0,0-18-2.7Z"/><path class="cls-2" d="M44.42,27.65a3.17,3.17,0,0,0,.2-4.5l-.2-.2a3.46,3.46,0,0,0-2.6-.9h-5.3v6.6h5.2A3.62,3.62,0,0,0,44.42,27.65Z"/><path class="cls-2" d="M25.32,23.25a3.36,3.36,0,0,0-2.8-1.1h-4.8v7.6h4.7a3.61,3.61,0,0,0,2.8-1,3.25,3.25,0,0,0,1.1-2.8A3.52,3.52,0,0,0,25.32,23.25Z"/><path class="cls-2" d="M42.22,33.05h-5.5v7.1h5.7a3.83,3.83,0,0,0,2.9-1,3.19,3.19,0,0,0,1-2.6,3.54,3.54,0,0,0-1-2.6A4.91,4.91,0,0,0,42.22,33.05Z"/><path d="M50.22,33.25a7.76,7.76,0,0,0-3.4-2.5v-.3a5.82,5.82,0,0,0,2.6-2.3,6.5,6.5,0,0,0-.1-7.2,8.33,8.33,0,0,0-3-2.6,9.9,9.9,0,0,0-4.1-1H28.32a9,9,0,0,1,4.7,7.8c.1.5.6,5.3-5.6,8.7l7.5,11h7.7a11.3,11.3,0,0,0,4.5-.9,7.63,7.63,0,0,0,3.2-2.7,6.89,6.89,0,0,0,1.2-3.9A6.68,6.68,0,0,0,50.22,33.25Zm-13.6-11.2h5.3a4.11,4.11,0,0,1,2.6.9,2.9,2.9,0,0,1,1,2.3,3.49,3.49,0,0,1-1,2.4,3.32,3.32,0,0,1-2.7.9h-5.2Zm8.6,17.2a3.83,3.83,0,0,1-2.9,1h-5.7v-7.2h5.5a4.06,4.06,0,0,1,3,1,3.19,3.19,0,0,1,1,2.6A2.84,2.84,0,0,1,45.22,39.25Z"/><path class="cls-2" d="M25.32,23.25a3.36,3.36,0,0,0-2.8-1.1h-4.8v7.6h4.7a3.61,3.61,0,0,0,2.8-1,3.25,3.25,0,0,0,1.1-2.8A3.52,3.52,0,0,0,25.32,23.25Z"/><path class="cls-2" d="M25.32,23.25a3.36,3.36,0,0,0-2.8-1.1h-4.8v7.6h4.7a3.61,3.61,0,0,0,2.8-1,3.25,3.25,0,0,0,1.1-2.8A3.52,3.52,0,0,0,25.32,23.25Z"/><path d="M25.52,33.35l.7-.3c6.2-3,5.5-7.5,5.5-7.7v-.1a8.18,8.18,0,0,0-8.1-8h-11v22.9h0v.3c.8,4,5,4.4,5.1,4.4h0v-4.7h0v-5.7h2.4l7,10.3h6.2Zm-3.1-3.6h-4.7v-7.6h4.8a3.55,3.55,0,0,1,2.8,1.1,3.39,3.39,0,0,1,1,2.7,3.86,3.86,0,0,1-1.1,2.7,3.25,3.25,0,0,1-2.8,1.1Z"/></g></g></svg>